<svg id="레이어_2" data-name="레이어 2" xmlns="http://www.w3.org/2000/svg" viewBox="0 0 1369.5 765.86"><defs><style>.cls-1{fill:#f7ebcd;}.cls-2{fill:#494949;}.cls-3{fill:#fff;}.cls-4{fill:#ffec00;}.cls-5{fill:#002817;}.cls-6{fill:#232222;}.cls-7{fill:#ed0000;}.cls-8{fill:#06d800;}</style></defs><title>huiroad</title><g id="huiroad"><rect class="cls-1" y="552.96" width="1369.17" height="212.9"/><rect class="cls-1" width="1369.17" height="216.82"/><rect class="cls-2" y="217.46" width="1369.5" height="336.99"/><rect class="cls-3" x="1034.71" y="253.17" width="162.72" height="24.99"/><rect class="cls-3" x="1034.71" y="311.8" width="162.72" height="24.99"/><rect class="cls-3" x="1034.71" y="370.44" width="162.72" height="24.99"/><rect class="cls-3" x="1034.71" y="429.07" width="162.72" height="24.99"/><rect class="cls-3" x="1034.71" y="487.7" width="162.72" height="24.99"/><rect class="cls-4" y="380.85" width="211.14" height="15.94"/><rect class="cls-4" x="1244.17" y="380.85" width="124.66" height="15.94"/></g><path id="bong" class="cls-5" d="M227.63,219.11V174.49c0-17.89,12.08-32.39,27-32.39h277c14.9,0,27,14.5,27,32.39v44.62h9.61a38.57,38.57,0,0,0,.83-7.95V161c0-17.89-12.08-32.39-27-32.39H242.14c-14.9,0-27,14.5-27,32.39v50.12a38.55,38.55,0,0,0,.83,7.95h11.64Z" transform="translate(0 -3.14)"/><g id="sinho"><rect class="cls-6" x="1165.53" y="112.55" width="39.75" height="62.77"/><rect class="cls-6" x="1178.36" y="175.32" width="13.6" height="42.89"/><rect class="cls-7" x="1171.81" y="119.87" width="27.2" height="20.92"/><rect class="cls-8" x="1171.81" y="147.07" width="27.2" height="20.92"/></g></svg>