<svg id="레이어_2" data-name="레이어 2" xmlns="http://www.w3.org/2000/svg" width="214.39" height="251.2" viewBox="0 0 214.39 251.2"><defs><style>.cls-1{fill:#00c638;}.cls-2{fill:#684800;}.cls-3{fill:#fff31a;}</style></defs><title>lefttree</title><g id="righttree"><circle class="cls-1" cx="104.16" cy="64.79" r="64.79"/><ellipse class="cls-1" cx="55.11" cy="108.54" rx="55.11" ry="61.38"/><ellipse class="cls-1" cx="159.27" cy="115.56" rx="55.11" ry="61.38"/><ellipse class="cls-1" cx="149.9" cy="169.92" rx="55.11" ry="61.38"/><ellipse class="cls-1" cx="55.11" cy="169.92" rx="55.11" ry="61.38"/><path class="cls-2" d="M1041.58,732.85V609.15h-15.43V733Q1033.87,732.63,1041.58,732.85Z" transform="translate(-931.36 -481.81)"/><rect class="cls-2" x="1049.9" y="620.25" width="15.43" height="77" transform="translate(-220.65 -1019.78) rotate(41.92)"/><rect class="cls-2" x="997.76" y="613.22" width="15.43" height="77" transform="translate(-1065.83 539.03) rotate(-50.89)"/><circle class="cls-3" cx="171.4" cy="101.17" r="12.12"/><circle class="cls-3" cx="39.37" cy="115.56" r="12.12"/><circle class="cls-3" cx="104.16" cy="57.58" r="12.12"/><circle class="cls-3" cx="168.95" cy="181.77" r="12.12"/><circle class="cls-3" cx="34.72" cy="192.51" r="12.12"/></g></svg>