<svg id="레이어_2" data-name="레이어 2" xmlns="http://www.w3.org/2000/svg" width="214.39" height="251.2" viewBox="0 0 214.39 251.2"><defs><style>.cls-1{fill:#00c638;}.cls-2{fill:#684800;}.cls-3{fill:#fff31a;}</style></defs><title>righttree</title><g id="lefttree"><circle class="cls-1" cx="104.16" cy="64.79" r="64.79"/><ellipse class="cls-1" cx="55.11" cy="108.54" rx="55.11" ry="61.38"/><ellipse class="cls-1" cx="159.27" cy="115.56" rx="55.11" ry="61.38"/><ellipse class="cls-1" cx="149.9" cy="169.92" rx="55.11" ry="61.38"/><ellipse class="cls-1" cx="55.11" cy="169.92" rx="55.11" ry="61.38"/><path class="cls-2" d="M1265.34,731.9V608.19h-15.43V732Q1257.62,731.67,1265.34,731.9Z" transform="translate(-1155.11 -480.85)"/><rect class="cls-2" x="1273.65" y="619.29" width="15.43" height="77" transform="translate(-387.79 -1168.55) rotate(41.92)"/><rect class="cls-2" x="1221.51" y="612.27" width="15.43" height="77" transform="translate(-1206.23 713.26) rotate(-50.89)"/><circle class="cls-3" cx="171.4" cy="101.17" r="12.12"/><circle class="cls-3" cx="39.37" cy="115.56" r="12.12"/><circle class="cls-3" cx="104.16" cy="57.58" r="12.12"/><circle class="cls-3" cx="168.95" cy="181.77" r="12.12"/><circle class="cls-3" cx="34.72" cy="192.51" r="12.12"/></g></svg>