<?xml version="1.0" encoding="utf-8"?>
<!-- Generator: Adobe Illustrator 16.0.0, SVG Export Plug-In . SVG Version: 6.00 Build 0)  -->
<!DOCTYPE svg PUBLIC "-//W3C//DTD SVG 1.1//EN" "http://www.w3.org/Graphics/SVG/1.1/DTD/svg11.dtd">
<svg version="1.1" id="레이어_1" xmlns="http://www.w3.org/2000/svg" xmlns:xlink="http://www.w3.org/1999/xlink" x="0px"
	 y="0px" width="56.693px" height="56.693px" viewBox="0 0 56.693 56.693" enable-background="new 0 0 56.693 56.693"
	 xml:space="preserve">
<path fill="#26863A" d="M36.292,10.644c-3.151,3.338-7.014,4.811-8.625,3.29c-1.611-1.521-0.362-5.462,2.789-8.801
	c3.152-3.339,7.158-2.57,8.625-3.288C40.546,1.125,39.444,7.306,36.292,10.644z"/>
<path fill="#9E2024" d="M52.647,34.36c0,11.856-10.91,21.47-24.366,21.47c-13.457,0-24.366-9.612-24.366-21.47
	S17.033,7.186,28.281,12.89C43.856,7.135,52.647,22.503,52.647,34.36z"/>
<path fill="#E83C30" d="M51.719,33.701c0,11.857-10.91,21.47-24.366,21.47c-13.458,0-24.366-9.612-24.366-21.47
	c0-11.855,13.118-27.173,24.366-21.469C42.927,6.476,51.719,21.844,51.719,33.701z"/>
<path fill="#F1F9FE" d="M48.084,36.545c0,0.953,0.147,1.488-1.701,1.726c-1.848,0.236-1.699-0.772-1.699-1.726
	s0.761-1.726,1.699-1.726C47.323,34.82,48.084,35.593,48.084,36.545z"/>
<path fill="#F1F9FE" d="M37.173,46.322c-2.307,1.373-6.039,5.693-6.905,3.955c-0.868-1.738,4.634-5.022,5.439-5.81
	c0.806-0.785,5.18-5.199,6.905-3.953C44.34,41.76,39.481,44.949,37.173,46.322z"/>
<path fill="#93C86C" d="M35.952,9.721c-3.152,3.338-7.014,4.811-8.625,3.288c-1.612-1.521-0.364-5.461,2.789-8.799
	c3.152-3.339,7.159-2.571,8.625-3.29C40.208,0.203,39.104,6.382,35.952,9.721z"/>
<ellipse transform="matrix(-0.587 0.8096 -0.8096 -0.587 57.1492 -12.6725)" fill="#FFFFFF" cx="31.807" cy="8.24" rx="4.326" ry="0.262"/>
<text transform="matrix(1 0 0 1 2.6443 37.2947)" fill="#FFFFFF" font-family="'BMDoHyeon'" font-size="17.3206">자판기</text>
<text transform="matrix(1 0 0 1 2.6443 37.2947)" fill="none" font-family="'BMDoHyeon'" font-size="17.3206">자판기</text>
</svg>
