<svg id="레이어_1" data-name="레이어 1" xmlns="http://www.w3.org/2000/svg" width="177.82" height="145.28" viewBox="0 0 177.82 145.28"><defs><style>.cls-1{fill:#e2b534;}.cls-2{fill:#a08755;}.cls-3{fill:#841212;}.cls-4{fill:#e20707;}</style></defs><title>basket</title><path class="cls-1" d="M1086,192.89l2.53-6.17H996.27a20.75,20.75,0,0,0-20.75,20.75v42.1a20.75,20.75,0,0,0,20.75,20.75h111.26a20.75,20.75,0,0,0,20.75-20.75V210.21Z" transform="translate(-956.12 -125.05)"/><rect class="cls-1" x="87.64" width="16.3" height="73.21" rx="8.15" ry="8.15"/><rect class="cls-2" x="1048.15" y="186.09" width="89.03" height="10.88" transform="translate(-713.96 -645.72) rotate(30)"/><rect class="cls-2" x="967.43" y="185.57" width="89.03" height="11.44" transform="translate(1027.84 -274.07) rotate(150)"/><path class="cls-3" d="M1051.7,161.78c-4.65,2.28-6.69,8.19-13.61,9.8a16.12,16.12,0,0,1-8.29-.38l-23.25,16.61L1053,246.09c15-18.25,30-39.56,44.93-57.81-7.44-7-14.89-10.88-22.33-17.86C1062.8,160.15,1055.8,159.77,1051.7,161.78Z" transform="translate(-956.12 -125.05)"/><path class="cls-4" d="M1050.84,162.23c-4,2-5.75,1.22-11.69,2.64-2.86.68-5.41,6.19-7.12,5.66l-20,14.65,39.88,51.4c12.86-16.09,28.55-34.85,41.41-50.94-6.39-6.15-15.61-9.64-22-15.79C1060.37,160.8,1054.36,160.46,1050.84,162.23Z" transform="translate(-956.12 -125.05)"/><rect class="cls-1" x="952.27" y="173.91" width="107.25" height="13.34" transform="translate(-911.64 402.09) rotate(-30)"/></svg>