<?xml version="1.0" encoding="utf-8"?>
<!-- Generator: Adobe Illustrator 16.0.0, SVG Export Plug-In . SVG Version: 6.00 Build 0)  -->
<!DOCTYPE svg PUBLIC "-//W3C//DTD SVG 1.1//EN" "http://www.w3.org/Graphics/SVG/1.1/DTD/svg11.dtd">
<svg version="1.1" id="레이어_1" xmlns="http://www.w3.org/2000/svg" xmlns:xlink="http://www.w3.org/1999/xlink" x="0px"
	 y="0px" width="56.689px" height="56.689px" viewBox="0 0 56.689 56.689" enable-background="new 0 0 56.689 56.689"
	 xml:space="preserve">
<g>
	<path fill="#7D4E22" d="M27.075,15.501c-0.801,0-1.448-0.253-1.448-0.564V4.439c0-0.313,0.647-0.564,1.448-0.564h1.3
		c0.799,0,1.446,0.253,1.446,0.564v10.497c0,0.313-0.647,0.564-1.446,0.564H27.075z"/>
	<path fill="#40220F" d="M47.416,4.571c0,0.8-0.817,1.447-1.828,1.447H11.679c-1.008,0-1.826-0.647-1.826-1.447v-1.3
		c0-0.799,0.817-1.446,1.826-1.446h33.908c1.011,0,1.828,0.647,1.828,1.446V4.571L47.416,4.571z"/>
	<circle fill="#181532" cx="10.104" cy="19.819" r="5.448"/>
	<circle fill="#4C3F86" cx="9.241" cy="18.853" r="5.447"/>
	<circle fill="#181532" cx="21.068" cy="15.94" r="7.451"/>
	<circle fill="#4C3F86" cx="20.275" cy="15.233" r="7.45"/>
	<circle fill="#181532" cx="34.338" cy="16.533" r="6.253"/>
	<circle fill="#4C3F86" cx="33.672" cy="15.94" r="6.253"/>
	
		<ellipse transform="matrix(0.2017 0.9794 -0.9794 0.2017 56.1688 -29.5262)" fill="#181532" cx="46.198" cy="19.695" rx="5.219" ry="5.381"/>
	
		<ellipse transform="matrix(0.2017 0.9794 -0.9794 0.2017 55.278 -29.1709)" fill="#4C3F86" cx="45.534" cy="19.325" rx="5.22" ry="5.38"/>
	<circle fill="#181532" cx="14.675" cy="29.355" r="6.397"/>
	<circle fill="#4C3F86" cx="14.197" cy="28.577" r="6.397"/>
	<path fill="#181532" d="M43.197,23.429c3.455,0,6.255,2.8,6.255,6.253c0,3.452-2.8,6.252-6.255,6.252
		c-3.45,0-6.252-2.8-6.252-6.252C36.945,26.229,39.746,23.429,43.197,23.429z"/>
	<path fill="#4C3F86" d="M42.426,22.982c3.451,0,6.255,2.8,6.255,6.253c0,3.452-2.804,6.253-6.255,6.253
		c-3.452,0-6.254-2.801-6.254-6.253C36.172,25.781,38.973,22.982,42.426,22.982z"/>
	<circle fill="#181532" cx="20.689" cy="40.546" r="6.253"/>
	<circle fill="#4C3F86" cx="19.974" cy="40.015" r="6.253"/>
	<path fill="#181532" d="M43.979,40.314c0.336,3.89-2.543,7.313-6.433,7.649c-3.889,0.336-7.313-2.543-7.649-6.432
		c-0.336-3.89,2.543-7.314,6.435-7.65C40.219,33.547,43.643,36.426,43.979,40.314z"/>
	<circle fill="#181532" cx="27.434" cy="49.839" r="6.253"/>
	<path fill="#4C3F86" d="M26.719,43.051c3.452,0,6.252,2.804,6.252,6.255c0,3.454-2.8,6.254-6.252,6.254
		c-3.453,0-6.253-2.8-6.253-6.254C20.467,45.854,23.266,43.051,26.719,43.051z"/>
	<circle fill="#181532" cx="28.947" cy="29.673" r="7.45"/>
	<circle fill="#4C3F86" cx="28.153" cy="28.966" r="7.45"/>
	<circle fill="#4C3F86" cx="36.131" cy="40.321" r="7.067"/>
	<path fill="#7D4E22" d="M47.133,4.33c0,0.799-0.817,1.447-1.825,1.447H11.398c-1.008,0-1.827-0.648-1.827-1.447v-1.3
		c0-0.799,0.818-1.447,1.827-1.447h33.909c1.008,0,1.825,0.647,1.825,1.447V4.33z"/>
	<ellipse fill="#40220F" cx="46.023" cy="3.682" rx="0.646" ry="1.617"/>
	<g>
		<g>
			<path fill="#2CA339" d="M28.651,5.943c-1.01,1.106-1.505,2.695,0.104,3.51c1.369,0.691,3.266,0.554,4.637-0.052
				c1.557-0.688,2.149-2.119,1.373-3.664c-0.554-1.104-1.662-1.911-2.908-1.36c-1.313,0.581-1.776,1.94-1.576,3.282
				c0.449,2.971,5.023,2.877,7.056,1.849c1.218-0.615,1.733-1.89,1.849-3.18c0.104-1.225-0.558-2.891-1.832-3.3
				c-1.211-0.387-2.438,0.766-2.412,1.981c0.022,1.13,1.351,1.706,2.276,1.899c1.195,0.247,2.421-0.041,2.972-1.228
				c0.61-1.314-0.726-3.63,0.985-4.305c0.373-0.146,0.765-0.038,1.104,0.14c0.435,0.229,0.818-0.429,0.386-0.657
				c-1.267-0.664-2.979-0.041-3.132,1.499c-0.122,1.263,0.74,3.638-1.211,3.858c-0.95,0.108-3.182-0.447-2.463-1.803
				c0.558-1.051,1.492-0.757,2.07,0.044c0.547,0.754,0.579,1.642,0.397,2.521c-0.343,1.651-1.845,2.252-3.371,2.343
				c-1.567,0.091-3.55-0.038-3.938-1.869c-0.373-1.747,1.735-3.541,2.903-1.66c0.425,0.683,0.675,1.455,0.187,2.166
				c-0.791,1.154-2.836,1.305-4.074,1.1c-0.534-0.09-1.194-0.275-1.502-0.765c-0.385-0.611,0.279-1.396,0.662-1.813
				C29.52,6.12,28.983,5.581,28.651,5.943L28.651,5.943z"/>
		</g>
	</g>
	<g>
		<g>
			<path fill="#2CA339" d="M20.853,6.44c-2.491-0.021-6.592-1.019-7.853,1.95c-0.675,1.587-0.739,4.768,1.629,4.833
				c0.725,0.021,2.107-0.451,1.748-1.419c-0.353-0.946-1.793-1.396-2.654-1.65c-1.142-0.336-2.317-0.251-3.361,0.352
				c-1.159,0.669-1.366,2.107-1.458,3.319c-0.036,0.489,0.726,0.486,0.762,0c0.072-0.974,0.195-2.08,1.082-2.663
				c0.779-0.514,1.753-0.529,2.625-0.313c0.769,0.189,1.661,0.513,2.218,1.101c0.252,0.266-0.286,0.384-0.469,0.442
				c-0.393,0.126-0.866,0.107-1.194-0.158c-1.055-0.853-0.63-3.25,0.128-4.157c1.489-1.787,4.815-0.892,6.799-0.873
				C21.344,7.207,21.344,6.445,20.853,6.44L20.853,6.44z"/>
		</g>
	</g>
</g>
<text transform="matrix(1 0 0 1 9.8533 33.5447)" fill="#FFFFFF" font-family="'BMDoHyeon'" font-size="17.3206">식사</text>
<text transform="matrix(1 0 0 1 9.8533 33.5447)" fill="none" font-family="'BMDoHyeon'" font-size="17.3206">식사</text>
</svg>
