<?xml version="1.0" encoding="utf-8"?>
<!-- Generator: Adobe Illustrator 16.0.0, SVG Export Plug-In . SVG Version: 6.00 Build 0)  -->
<!DOCTYPE svg PUBLIC "-//W3C//DTD SVG 1.1//EN" "http://www.w3.org/Graphics/SVG/1.1/DTD/svg11.dtd">
<svg version="1.1" id="레이어_1" xmlns="http://www.w3.org/2000/svg" xmlns:xlink="http://www.w3.org/1999/xlink" x="0px"
	 y="0px" width="56.689px" height="56.689px" viewBox="0 0 56.689 56.689" enable-background="new 0 0 56.689 56.689"
	 xml:space="preserve">
<path fill="#29813A" d="M32.021,6.811c-1.957,2.072-4.354,2.987-5.355,2.043c-1-0.944-0.226-3.393,1.731-5.464
	c1.957-2.073,4.444-1.598,5.354-2.042C34.664,0.901,33.979,4.738,32.021,6.811z"/>
<path fill="#8FC06B" d="M31.811,6.238c-1.956,2.073-4.354,2.987-5.355,2.044c-1.001-0.945-0.227-3.393,1.731-5.466
	c1.957-2.072,4.444-1.596,5.354-2.042C34.453,0.327,33.768,4.165,31.811,6.238z"/>
<ellipse transform="matrix(0.5884 -0.8086 0.8086 0.5884 8.4166 25.9168)" fill="#FFFFFF" cx="29.665" cy="4.691" rx="2.686" ry="0.165"/>
<path fill="#AE9F1D" d="M42.604,32.244c1.519,17.031-16.521,20.791-16.016,22.263c0.506,1.471-15.847-5.468-16.017-22.263
	C10.405,15.45,26.252,12.706,26.589,9.983C26.926,7.26,41.088,15.212,42.604,32.244z"/>
<path fill="#F5E028" d="M41.977,31.455c1.518,17.032-16.521,20.791-16.018,22.262c0.504,1.472-15.847-5.467-16.016-22.262
	S25.623,11.916,25.96,9.193S40.459,14.423,41.977,31.455z"/>
<ellipse fill="#FEF3E6" cx="21.369" cy="16.16" rx="0.756" ry="0.417"/>
<ellipse fill="#FEF3E6" cx="26.005" cy="15.615" rx="1.398" ry="0.739"/>
<ellipse fill="#FEF3E6" cx="23.456" cy="17.186" rx="0.973" ry="0.513"/>
<ellipse fill="#FEF3E6" cx="29.327" cy="14.361" rx="0.755" ry="0.417"/>
<ellipse transform="matrix(-0.0079 -1 1 -0.0079 13.8565 46.4496)" fill="#FEF3E6" cx="29.969" cy="16.351" rx="0.738" ry="1.399"/>
<ellipse fill="#FEF3E6" cx="33.314" cy="17.089" rx="0.973" ry="0.513"/>
<text transform="matrix(1 0 0 1 9.9783 35.4197)" fill="#FFFFFF" font-family="'BMDoHyeon'" font-size="17.3206">메인</text>
<text transform="matrix(1 0 0 1 9.9783 35.4197)" fill="none" font-family="'BMDoHyeon'" font-size="17.3206">메인</text>
</svg>
