<?xml version="1.0" encoding="utf-8"?>
<!-- Generator: Adobe Illustrator 16.0.0, SVG Export Plug-In . SVG Version: 6.00 Build 0)  -->
<!DOCTYPE svg PUBLIC "-//W3C//DTD SVG 1.1//EN" "http://www.w3.org/Graphics/SVG/1.1/DTD/svg11.dtd">
<svg version="1.1" id="레이어_1" xmlns="http://www.w3.org/2000/svg" xmlns:xlink="http://www.w3.org/1999/xlink" x="0px"
	 y="0px" width="1366px" height="768px" viewBox="0 0 1366 768" enable-background="new 0 0 1366 768" xml:space="preserve">
<rect x="423.143" y="124.143" transform="matrix(0.7071 -0.7071 0.7071 0.7071 -71.4828 595.4251)" fill="#FF83D0" width="519.714" height="519.713"/>
<g>
	<defs>
		<rect id="SVGID_1_" width="1366" height="768"/>
	</defs>
	<clipPath id="SVGID_2_">
		<use xlink:href="#SVGID_1_"  overflow="visible"/>
	</clipPath>
	<path clip-path="url(#SVGID_2_)" fill="#FFFFFF" d="M336.457,382.716L336.457,382.716c2.148,2.148,5.63,2.148,7.778,0
		l47.376-47.376c2.148-2.148,2.148-5.63,0-7.778s-5.63-2.148-7.778,0l-47.376,47.376
		C334.309,377.086,334.309,380.568,336.457,382.716"/>
	<path clip-path="url(#SVGID_2_)" fill="#FFFFFF" d="M406.457,312.716L406.457,312.716c2.148,2.148,5.63,2.148,7.778,0
		l47.376-47.376c2.148-2.148,2.148-5.63,0-7.778s-5.63-2.148-7.778,0l-47.376,47.376
		C404.309,307.086,404.309,310.568,406.457,312.716"/>
	<path clip-path="url(#SVGID_2_)" fill="#FFFFFF" d="M481.509,237.664L481.509,237.664c2.148,2.148,5.63,2.148,7.778,0
		l47.376-47.376c2.148-2.148,2.148-5.63,0-7.778c-2.148-2.148-5.63-2.148-7.778,0l-47.376,47.376
		C479.361,232.034,479.361,235.516,481.509,237.664"/>
	<path clip-path="url(#SVGID_2_)" fill="#FFFFFF" d="M556.676,162.497L556.676,162.497c2.148,2.148,5.63,2.148,7.778,0
		l47.376-47.376c2.148-2.148,2.148-5.63,0-7.778s-5.63-2.148-7.778,0l-47.376,47.376
		C554.528,156.867,554.528,160.349,556.676,162.497"/>
	<path clip-path="url(#SVGID_2_)" fill="#FFFFFF" d="M629.296,89.877L629.296,89.877c2.147,2.148,5.63,2.148,7.778,0l47.376-47.376
		c2.147-2.148,2.147-5.63,0-7.778c-2.148-2.148-5.63-2.148-7.778,0l-47.376,47.376C627.148,84.247,627.148,87.73,629.296,89.877"/>
	<path clip-path="url(#SVGID_2_)" fill="#FFFFFF" d="M696.174,55.223L696.174,55.223c-2.148,2.148-2.148,5.63,0,7.778l47.376,47.376
		c2.147,2.148,5.63,2.148,7.778,0c2.147-2.147,2.147-5.63,0-7.778l-47.377-47.376C701.804,53.075,698.32,53.075,696.174,55.223"/>
	<path clip-path="url(#SVGID_2_)" fill="#FFFFFF" d="M761.793,120.842L761.793,120.842c-2.148,2.148-2.148,5.63,0,7.778
		l47.376,47.376c2.147,2.148,5.63,2.148,7.778,0c2.147-2.148,2.147-5.63,0-7.778l-47.376-47.376
		C767.423,118.694,763.94,118.694,761.793,120.842"/>
	<path clip-path="url(#SVGID_2_)" fill="#FFFFFF" d="M830.513,189.562L830.513,189.562c-2.148,2.148-2.148,5.63,0,7.778
		l47.376,47.376c2.146,2.148,5.63,2.148,7.778,0c2.147-2.148,2.147-5.63,0-7.778l-47.376-47.376
		C836.143,187.414,832.66,187.414,830.513,189.562"/>
	<path clip-path="url(#SVGID_2_)" fill="#FFFFFF" d="M898.513,257.562L898.513,257.562c-2.148,2.148-2.148,5.63,0,7.778
		l47.376,47.376c2.146,2.148,5.63,2.148,7.778,0c2.147-2.148,2.147-5.63,0-7.778l-47.376-47.376
		C904.143,255.414,900.66,255.414,898.513,257.562"/>
	<path clip-path="url(#SVGID_2_)" fill="#FFFFFF" d="M959.674,318.723L959.674,318.723c-2.148,2.148-2.148,5.63,0,7.778
		l47.376,47.376c2.147,2.148,5.63,2.148,7.778,0c2.147-2.148,2.147-5.63,0-7.778l-47.377-47.376
		C965.304,316.575,961.82,316.575,959.674,318.723"/>
	<path clip-path="url(#SVGID_2_)" fill="#FFFFFF" d="M347.544,395.223L347.544,395.223c-2.147,2.148-2.147,5.631,0,7.778
		l47.376,47.376c2.148,2.148,5.631,2.148,7.778,0h0.001c2.147-2.147,2.147-5.63,0-7.778l-47.377-47.376
		C353.174,393.076,349.692,393.076,347.544,395.223"/>
	<path clip-path="url(#SVGID_2_)" fill="#FFFFFF" d="M417.479,465.156L417.479,465.156c-2.148,2.148-2.148,5.631,0,7.778
		l47.376,47.376c2.148,2.148,5.63,2.148,7.778,0c2.148-2.147,2.148-5.63,0-7.778l-47.376-47.376
		C423.108,463.01,419.626,463.01,417.479,465.156"/>
	<path clip-path="url(#SVGID_2_)" fill="#FFFFFF" d="M486.198,533.876L486.198,533.876c-2.148,2.148-2.148,5.631,0,7.778
		l47.376,47.376c2.148,2.148,5.63,2.148,7.778,0c2.148-2.147,2.148-5.63,0-7.778l-47.376-47.376
		C491.828,531.729,488.346,531.729,486.198,533.876"/>
	<path clip-path="url(#SVGID_2_)" fill="#FFFFFF" d="M554.198,601.876L554.198,601.876c-2.148,2.148-2.148,5.631,0,7.778
		l47.376,47.376c2.148,2.148,5.63,2.148,7.778,0c2.148-2.147,2.148-5.63,0-7.778l-47.376-47.376
		C559.828,599.729,556.346,599.729,554.198,601.876"/>
	<path clip-path="url(#SVGID_2_)" fill="#FFFFFF" d="M615.359,663.037L615.359,663.037c-2.148,2.147-2.148,5.63,0,7.778
		l47.376,47.376c2.148,2.148,5.63,2.148,7.778,0c2.148-2.147,2.148-5.63,0-7.778l-47.376-47.376
		C620.989,660.89,617.507,660.89,615.359,663.037"/>
	<path clip-path="url(#SVGID_2_)" fill="#FFFFFF" d="M696.981,718.191L696.981,718.191c2.146,2.148,5.63,2.148,7.778,0
		l47.376-47.376c2.147-2.148,2.147-5.631,0-7.778s-5.63-2.147-7.778,0l-47.376,47.376
		C694.833,712.562,694.833,716.044,696.981,718.191"/>
	<path clip-path="url(#SVGID_2_)" fill="#FFFFFF" d="M761.793,655.117L761.793,655.117c2.147,2.147,5.63,2.147,7.778,0
		l47.376-47.376c2.147-2.148,2.147-5.631,0-7.778c-2.148-2.147-5.631-2.147-7.778,0l-47.376,47.376
		C759.645,649.487,759.645,652.97,761.793,655.117"/>
	<path clip-path="url(#SVGID_2_)" fill="#FFFFFF" d="M830.513,584.66L830.513,584.66c2.147,2.148,5.63,2.148,7.778,0l47.376-47.376
		c2.147-2.147,2.147-5.63,0-7.778c-2.148-2.147-5.632-2.147-7.778,0l-47.376,47.376C828.364,579.03,828.364,582.514,830.513,584.66"
		/>
	<path clip-path="url(#SVGID_2_)" fill="#FFFFFF" d="M901.457,513.716L901.457,513.716c2.146,2.148,5.63,2.148,7.777,0
		l47.377-47.376c2.147-2.147,2.147-5.63,0-7.778c-2.148-2.147-5.632-2.147-7.778,0l-47.376,47.377
		C899.309,508.086,899.309,511.568,901.457,513.716"/>
	<path clip-path="url(#SVGID_2_)" fill="#FFFFFF" d="M976.145,440.766L976.145,440.766c2.147,2.146,5.631,2.146,7.778,0
		l47.376-47.377c2.148-2.147,2.148-5.63,0-7.777c-2.147-2.149-5.631-2.149-7.778,0l-47.376,47.376
		C973.997,435.135,973.997,438.617,976.145,440.766"/>
</g>
</svg>
