<svg id="레이어_1" data-name="레이어 1" xmlns="http://www.w3.org/2000/svg" width="51.78" height="50.65" viewBox="0 0 51.78 50.65"><defs><style>.cls-1{fill:#00caf9;}.cls-2{fill:#f7b000;}.cls-3{fill:#f7d303;}</style></defs><title>yflower</title><circle class="cls-1" cx="27.53" cy="11.22" r="10.43"/><path class="cls-2" d="M1073.13,554.63c0,6.19-2.87,11.22-9.06,11.22a11.22,11.22,0,0,1,0-22.43C1070.26,543.42,1073.13,548.44,1073.13,554.63Z" transform="translate(-1021.35 -532.2)"/><circle class="cls-2" cx="33.1" cy="40.22" r="10.43"/><circle class="cls-2" cx="16.1" cy="40.22" r="10.43"/><circle class="cls-2" cx="11.22" cy="22.43" r="11.22"/><path class="cls-2" d="M1059,543.42c0,6.19-2.87,11.22-9.06,11.22a11.22,11.22,0,0,1,0-22.43C1056.16,532.2,1059,537.22,1059,543.42Z" transform="translate(-1021.35 -532.2)"/><circle class="cls-3" cx="26.53" cy="26.22" r="10.43"/></svg>